<?xml version="1.0" encoding="UTF-8" standalone="no"?>
<!-- Created with Inkscape (http://www.inkscape.org/) -->

<svg
   width="256"
   height="256"
   viewBox="0 0 67.733334 67.733333"
   version="1.1"
   id="svg1"
   inkscape:version="1.3.2 (091e20ef0f, 2023-11-25, custom)"
   sodipodi:docname="icon.svg"
   inkscape:export-filename="icon.png"
   inkscape:export-xdpi="96"
   inkscape:export-ydpi="96"
   xmlns:inkscape="http://www.inkscape.org/namespaces/inkscape"
   xmlns:sodipodi="http://sodipodi.sourceforge.net/DTD/sodipodi-0.dtd"
   xmlns:xlink="http://www.w3.org/1999/xlink"
   xmlns="http://www.w3.org/2000/svg"
   xmlns:svg="http://www.w3.org/2000/svg">
  <sodipodi:namedview
     id="namedview1"
     pagecolor="#ffffff"
     bordercolor="#000000"
     borderopacity="0.25"
     inkscape:showpageshadow="2"
     inkscape:pageopacity="0.0"
     inkscape:pagecheckerboard="true"
     inkscape:deskcolor="#d1d1d1"
     inkscape:document-units="mm"
     inkscape:zoom="2.1771429"
     inkscape:cx="95.997373"
     inkscape:cy="147.21128"
     inkscape:window-width="1536"
     inkscape:window-height="932"
     inkscape:window-x="0"
     inkscape:window-y="0"
     inkscape:window-maximized="1"
     inkscape:current-layer="layer1" />
  <defs
     id="defs1">
    <filter
       style="color-interpolation-filters:sRGB;"
       inkscape:label="Blur"
       id="filter2"
       x="-0.26361203"
       y="-0.3344506"
       width="1.5272241"
       height="1.6689012">
      <feGaussianBlur
         stdDeviation="2 2"
         result="blur"
         id="feGaussianBlur2" />
    </filter>
    <filter
       style="color-interpolation-filters:sRGB;"
       inkscape:label="Blur"
       id="filter3"
       x="-0.19470963"
       y="-0.71361935"
       width="1.3894193"
       height="2.4272387">
      <feGaussianBlur
         stdDeviation="2 2"
         result="blur"
         id="feGaussianBlur3" />
    </filter>
    <filter
       style="color-interpolation-filters:sRGB;"
       inkscape:label="Blur"
       id="filter4"
       x="-0.19470963"
       y="-0.71361935"
       width="1.3894193"
       height="2.4272387">
      <feGaussianBlur
         stdDeviation="2 2"
         result="blur"
         id="feGaussianBlur4" />
    </filter>
  </defs>
  <g
     inkscape:label="图层 1"
     inkscape:groupmode="layer"
     id="layer1">
    <rect
       style="fill:#cdcdcd;fill-opacity:1;stroke:#ffffff;stroke-width:10;stroke-linecap:round;stroke-linejoin:round;stroke-dasharray:none;stroke-opacity:1;paint-order:markers stroke fill"
       id="rect2"
       width="55.422836"
       height="55.422836"
       x="5.9952121"
       y="6.5287948"
       ry="12.83606" />
    <path
       id="rect2-53"
       style="fill:#657fff;fill-opacity:1;stroke:#ffffff;stroke-width:5;stroke-linecap:round;stroke-linejoin:round;stroke-dasharray:none;stroke-opacity:1;paint-order:markers stroke fill"
       d="M 56.293205 58.621745 C 54.617887 58.65045 53.107013 59.715148 52.535811 61.32959 C 54.255779 60.776437 55.808194 59.866133 57.123128 58.693575 C 56.904376 58.65222 56.686418 58.628504 56.470455 58.622778 C 56.411176 58.621207 56.352113 58.620735 56.293205 58.621745 z " />
    <path
       id="rect2-53-9"
       style="fill:#657fff;fill-opacity:1;stroke:#ffffff;stroke-width:5;stroke-linecap:round;stroke-linejoin:round;stroke-dasharray:none;stroke-opacity:1;paint-order:markers stroke fill"
       d="M 61.417957 33.780884 C 60.261627 34.272188 59.348495 35.287599 59.042391 36.610685 L 56.563989 47.321659 C 56.055354 49.520161 57.415948 51.699547 59.614449 52.208183 L 60.951318 52.517208 C 61.246986 51.432993 61.417957 50.295812 61.417957 49.115348 L 61.417957 33.780884 z " />
    <path
       id="rect2-0"
       style="fill:#657fff;fill-opacity:1;stroke:#ffffff;stroke-width:4.99999;stroke-linecap:round;stroke-linejoin:round;stroke-dasharray:none;stroke-opacity:1;paint-order:markers stroke fill"
       d="M 25.619625 51.727592 C 23.722696 51.677299 21.99878 52.959265 21.553723 54.882955 L 19.918164 61.951774 L 44.843258 61.951774 L 45.212227 60.356523 C 45.720863 58.158019 44.360271 55.978635 42.161768 55.469999 L 26.440247 51.832495 C 26.165434 51.768916 25.890615 51.734777 25.619625 51.727592 z " />
    <g
       id="use4"
       transform="matrix(0.79188782,0.18320769,-0.18320769,0.79188782,21.504643,7.43541)"
       style="display:inline;fill:#484848;fill-opacity:1;stroke-width:3;stroke-dasharray:none;filter:url(#filter2)"
       inkscape:tile-x0="8.8983616"
       inkscape:tile-y0="7.0261507">
      <rect
         style="display:inline;fill:#657fff;fill-opacity:1;stroke:#ffffff;stroke-width:6.15154;stroke-linecap:round;stroke-linejoin:round;stroke-dasharray:none;stroke-opacity:1;paint-order:markers stroke fill"
         id="rect6"
         width="29.876368"
         height="23.54838"
         x="13.949251"
         y="19.71003"
         ry="5.011343"
         rx="0" />
      <path
         id="path6"
         style="display:inline;fill:#3eff17;fill-opacity:0.729968;stroke:none;stroke-width:3;stroke-linecap:round;stroke-linejoin:round;stroke-dasharray:none;stroke-opacity:1;paint-order:markers stroke fill"
         d="m 36.853875,28.524426 c -1.564477,0.0026 -2.578583,3.852621 -8.270296,2.371948 -8.029727,-2.088898 -9.675375,-0.634035 -14.565519,4.389396 v 2.96106 c 0,2.776281 2.234782,5.01158 5.011063,5.01158 h 19.853569 c 2.378368,0 4.355073,-1.642508 4.874121,-3.858162 -4.17255,-8.590356 -5.707256,-10.877778 -6.902938,-10.875822 z" />
    </g>
    <g
       id="use4-7"
       transform="matrix(0.79188782,0.18320769,-0.18320769,0.79188782,21.453546,6.7980725)"
       style="display:inline;stroke-width:3;stroke-dasharray:none"
       inkscape:tile-x0="22.890164"
       inkscape:tile-y0="23.277464"
       inkscape:tile-cx="38.561003"
       inkscape:tile-cy="37.028617"
       inkscape:tile-w="31.341679"
       inkscape:tile-h="27.489959">
      <rect
         style="display:inline;fill:#657fff;fill-opacity:1;stroke:#ffffff;stroke-width:6.15154;stroke-linecap:round;stroke-linejoin:round;stroke-dasharray:none;stroke-opacity:1;paint-order:markers stroke fill"
         id="rect7"
         width="29.876368"
         height="23.54838"
         x="13.949251"
         y="19.71003"
         ry="5.011343"
         rx="0" />
      <path
         id="path7"
         style="display:inline;fill:#3eff17;fill-opacity:0.729968;stroke:none;stroke-width:3;stroke-linecap:round;stroke-linejoin:round;stroke-dasharray:none;stroke-opacity:1;paint-order:markers stroke fill"
         d="m 36.853875,28.524426 c -1.564477,0.0026 -2.578583,3.852621 -8.270296,2.371948 -8.029727,-2.088898 -9.675375,-0.634035 -14.565519,4.389396 v 2.96106 c 0,2.776281 2.234782,5.01158 5.011063,5.01158 h 19.853569 c 2.378368,0 4.355073,-1.642508 4.874121,-3.858162 -4.17255,-8.590356 -5.707256,-10.877778 -6.902938,-10.875822 z" />
    </g>
    <rect
       style="fill:#484848;fill-opacity:1;stroke:none;stroke-width:12.9145;stroke-linecap:round;stroke-linejoin:round;stroke-dasharray:none;stroke-opacity:1;paint-order:markers stroke fill;filter:url(#filter4)"
       id="rect3-61"
       width="24.652094"
       height="6.726275"
       x="20.191654"
       y="6.4316711"
       ry="3.3631375"
       rx="0"
       transform="rotate(12.72205,-7.7767872,64.90129)" />
    <rect
       style="fill:#484848;fill-opacity:1;stroke:none;stroke-width:12.9145;stroke-linecap:round;stroke-linejoin:round;stroke-dasharray:none;stroke-opacity:1;paint-order:markers stroke fill;filter:url(#filter3)"
       id="rect3-6-8"
       width="24.652094"
       height="6.726275"
       x="14.066669"
       y="-15.555328"
       ry="3.3631375"
       rx="0"
       transform="rotate(104.27148,4.7403776,6.4492744)" />
    <rect
       style="fill:#797979;fill-opacity:1;stroke:none;stroke-width:12.9145;stroke-linecap:round;stroke-linejoin:round;stroke-dasharray:none;stroke-opacity:1;paint-order:markers stroke fill"
       id="rect3"
       width="24.652094"
       height="6.726275"
       x="34.961754"
       y="6.3139033"
       ry="3.3631375"
       rx="0"
       transform="rotate(12.72205)" />
    <rect
       style="fill:#797979;fill-opacity:1;stroke:none;stroke-width:12.9145;stroke-linecap:round;stroke-linejoin:round;stroke-dasharray:none;stroke-opacity:1;paint-order:markers stroke fill"
       id="rect3-6"
       width="24.652094"
       height="6.726275"
       x="14.373571"
       y="-29.092319"
       ry="3.3631375"
       rx="0"
       transform="rotate(104.27148)" />
    <use
       x="0"
       y="0"
       inkscape:tiled-clone-of="#use4-7"
       xlink:href="#use4-7"
       id="use7" />
  </g>
</svg>
